<?xml version="1.0" encoding="utf-8"?>
<!-- Generator: Adobe Illustrator 18.0.0, SVG Export Plug-In . SVG Version: 6.00 Build 0)  -->
<!DOCTYPE svg PUBLIC "-//W3C//DTD SVG 1.1//EN" "http://www.w3.org/Graphics/SVG/1.1/DTD/svg11.dtd">
<svg version="1.1" xmlns="http://www.w3.org/2000/svg" xmlns:xlink="http://www.w3.org/1999/xlink" x="0px" y="0px"
	 viewBox="0 0 347.3 1486.1" enable-background="new 0 0 347.3 1486.1" xml:space="preserve">
<g id="back">
	<g>
		<rect x="0.4" y="0" opacity="0.45" fill="#E5E5E5" width="346.1" height="793.9"/>
		
			<radialGradient id="SVGID_1_" cx="0.9193" cy="366.5703" r="395.697" gradientTransform="matrix(0.9988 0 0 4.1235 -0.2781 -1510.5527)" gradientUnits="userSpaceOnUse">
			<stop  offset="0.33" style="stop-color:#010202;stop-opacity:0"/>
			<stop  offset="1" style="stop-color:#010202;stop-opacity:2.000000e-02"/>
		</radialGradient>
		<rect x="0.4" y="0" fill="url(#SVGID_1_)" width="346.1" height="793.9"/>
	</g>
	<g opacity="0.13">
		<g opacity="0.6">
			<polyline fill="#1EB8D1" points="0.4,732.8 159.6,640.6 212.8,609.8 189.3,596 31.8,503.2 134.5,443.9 0.4,364.9 			"/>
		</g>
		<g opacity="0.4">
			<polyline fill="#1EB8D1" points="346.7,322.6 187.7,413.1 134.5,443.9 158,457.7 315.5,550.6 212.8,609.8 346.9,688.8 			"/>
		</g>
		<g>
			<polygon fill="#1EB8D1" points="189.3,596 212.8,609.8 315.5,550.6 158,457.7 134.5,443.9 31.8,503.2 			"/>
		</g>
	</g>
	<g opacity="0.13">
		<g opacity="0.6">
			<polyline fill="#1EB8D1" points="346.9,60.1 187.7,152.3 134.5,183 158,196.9 315.5,289.7 212.8,349 346.9,428 			"/>
		</g>
		<g opacity="0.4">
			<polyline fill="#1EB8D1" points="0.6,470.3 159.6,379.7 212.8,349 189.3,335.1 31.8,242.3 134.5,183 0.4,104.1 			"/>
		</g>
		<g>
			<polygon fill="#1EB8D1" points="158,196.9 134.5,183 31.8,242.3 189.3,335.1 212.8,349 315.5,289.7 			"/>
		</g>
	</g>
	<g>
		<rect x="0.4" y="793.9" opacity="0.45" fill="#E5E5E5" width="346.1" height="692.2"/>
		
			<radialGradient id="SVGID_2_" cx="0.9193" cy="559.1011" r="395.697" gradientTransform="matrix(-0.9988 0 0 -3.5954 347.2112 3495.457)" gradientUnits="userSpaceOnUse">
			<stop  offset="0.33" style="stop-color:#010202;stop-opacity:0"/>
			<stop  offset="1" style="stop-color:#010202;stop-opacity:2.000000e-02"/>
		</radialGradient>
		<rect x="0.4" y="793.9" fill="url(#SVGID_2_)" width="346.1" height="692.2"/>
	</g>
	<g opacity="0.13">
		<g opacity="0.6">
			<polyline fill="#1EB8D1" points="0.4,1406.7 159.6,1314.5 212.8,1283.7 189.3,1269.9 31.8,1177.1 134.5,1117.8 0.4,1038.8 			"/>
		</g>
		<g opacity="0.4">
			<polyline fill="#1EB8D1" points="346.7,996.5 187.7,1087 134.5,1117.8 158,1131.6 315.5,1224.5 212.8,1283.7 346.9,1362.7 			"/>
		</g>
		<g>
			<polygon fill="#1EB8D1" points="189.3,1269.9 212.8,1283.7 315.5,1224.5 158,1131.6 134.5,1117.8 31.8,1177.1 			"/>
		</g>
	</g>
	<g opacity="0.13">
		<g opacity="0.6">
			<polyline fill="#1EB8D1" points="346.9,734 187.7,826.2 134.5,856.9 158,870.8 315.5,963.6 212.8,1022.9 346.9,1101.9 			"/>
		</g>
		<g opacity="0.4">
			<polyline fill="#1EB8D1" points="0.6,1144.2 159.6,1053.6 212.8,1022.9 189.3,1009 31.8,916.2 134.5,856.9 0.4,778 			"/>
		</g>
		<g>
			<polygon fill="#1EB8D1" points="158,870.8 134.5,856.9 31.8,916.2 189.3,1009 212.8,1022.9 315.5,963.6 			"/>
		</g>
	</g>
</g>
<g id="type" display="none">
	<g display="inline">
		<rect x="1" y="437.1" fill="none" width="345.9" height="61.2"/>
		<text transform="matrix(1 0 0 1 69.2727 450.2045)"><tspan x="0" y="0" fill="#5C5C5C" font-family="'ClearSans-Light'" font-size="18.0221">Just start writing and we’ll</tspan><tspan x="-13.7" y="21.6" fill="#5C5C5C" font-family="'ClearSans-Light'" font-size="18.0221">pick the right content for you.</tspan></text>
	</g>
	<rect x="0" y="320.8" display="inline" fill="none" width="347.3" height="76.1"/>
	<text transform="matrix(1 0 0 1 120.4873 338.3948)" display="inline"><tspan x="0" y="0" fill="#343434" font-family="'ClearSans-Thin'" font-size="21.0258">Welcome to</tspan><tspan x="-49.4" y="41.5" fill="#5C5C5C" font-family="'ClearSans-Light'" font-size="34.5424">Content Push</tspan></text>
	
		<line display="inline" fill="none" stroke="#1EB8D1" stroke-width="0.5" stroke-miterlimit="10" x1="74.3" y1="408.7" x2="276.3" y2="408.7"/>
</g>
<g id="logo" display="none">
	<g display="inline">
		<g opacity="0.6">
			<polyline fill="#1EB8D1" points="133.1,239 174.7,214.9 188.6,206.8 182.5,203.2 141.3,179 168.1,163.5 133.1,142.8 			"/>
		</g>
		<g opacity="0.4">
			<polyline fill="#1EB8D1" points="223.6,131.8 182.1,155.4 168.1,163.5 174.3,167.1 215.5,191.4 188.6,206.8 223.7,227.5 			"/>
		</g>
		<g>
			<polygon fill="#1EB8D1" points="182.5,203.2 188.6,206.8 215.5,191.4 174.3,167.1 168.1,163.5 141.3,179 			"/>
		</g>
	</g>
</g>
</svg>
